{"glyphs":{"0":{"ha":1153,"x_min":0,"x_max":1085,"o":"m 271 271 l 814 271 l 814 678 l 271 678 l 271 271 m 271 0 q 0 271 0 0 l 0 678 q 271 949 0 949 l 814 949 q 1085 678 1085 949 l 1085 271 q 814 0 1085 0 l 271 0 z "},"1":{"ha":339,"x_min":0,"x_max":271,"o":"m 271 949 l 271 0 l 0 0 l 0 949 l 271 949 z "},"2":{"ha":1153,"x_min":0,"x_max":1085,"o":"m 0 678 l 0 949 l 814 949 q 1085 678 1085 949 l 1085 610 q 814 339 1085 339 l 271 339 l 271 271 l 1085 271 l 1085 0 l 0 0 l 0 339 q 271 610 0 610 l 814 610 l 814 678 l 0 678 z "},"3":{"ha":1153,"x_min":0,"x_max":1085,"o":"m 814 610 l 814 678 l 0 678 l 0 949 l 814 949 q 1085 678 1085 949 l 1085 271 q 814 0 1085 0 l 0 0 l 0 271 l 814 271 l 814 339 l 0 339 l 0 610 l 814 610 z "},"4":{"ha":1153,"x_min":0,"x_max":1085,"o":"m 271 339 q 0 610 0 339 l 0 949 l 271 949 l 271 610 l 814 610 l 814 949 l 1085 949 l 1085 0 l 814 0 l 814 339 l 271 339 z "},"5":{"ha":1153,"x_min":0,"x_max":1085,"o":"m 1085 678 l 271 678 l 271 610 l 814 610 q 1085 339 1085 610 l 1085 271 q 814 0 1085 0 l 0 0 l 0 271 l 814 271 l 814 339 l 271 339 q 0 610 0 339 l 0 949 l 1085 949 l 1085 678 z "},"6":{"ha":1153,"x_min":0,"x_max":1085,"o":"m 271 271 l 814 271 l 814 339 l 271 339 l 271 271 m 0 678 q 271 949 0 949 l 1017 949 l 1017 678 l 271 678 l 271 610 l 814 610 q 1085 339 1085 610 l 1085 271 q 814 0 1085 0 l 271 0 q 0 271 0 0 l 0 678 z "},"7":{"ha":1153,"x_min":0,"x_max":1085,"o":"m 1085 949 l 712 0 l 407 0 l 678 678 l 0 678 l 0 949 l 1085 949 z "},"8":{"ha":1153,"x_min":0,"x_max":1085,"o":"m 271 0 q 0 271 0 0 q 102 475 0 373 q 0 678 0 576 q 271 949 0 949 l 814 949 q 1085 678 1085 949 q 983 475 1085 576 q 1085 271 1085 373 q 814 0 1085 0 l 271 0 m 814 610 l 814 678 l 271 678 l 271 610 l 814 610 m 814 271 l 814 339 l 271 339 l 271 271 l 814 271 z "},"9":{"ha":1153,"x_min":0,"x_max":1085,"o":"m 814 678 l 271 678 l 271 610 l 814 610 l 814 678 m 1085 271 q 814 0 1085 0 l 68 0 l 68 271 l 814 271 l 814 339 l 271 339 q 0 610 0 339 l 0 678 q 271 949 0 949 l 814 949 q 1085 678 1085 949 l 1085 271 z "},"\u0000":{"ha":0,"x_min":0,"x_max":0,"o":""}," ":{"ha":814,"x_min":0,"x_max":0,"o":""},"!":{"ha":339,"x_min":0,"x_max":271,"o":"m 0 339 l 0 949 l 271 949 l 271 339 l 0 339 m 136 0 q 40 40 79 0 q 0 136 0 79 q 40 232 0 192 q 136 271 79 271 q 232 232 192 271 q 271 136 271 192 q 232 40 271 79 q 136 0 192 0 z "},"\"":{"ha":678,"x_min":0,"x_max":610,"o":"m 271 746 l 0 746 l 0 1017 l 271 1017 l 271 746 m 610 746 l 339 746 l 339 1017 l 610 1017 l 610 746 z "},"#":{"ha":1470,"x_min":0,"x_max":1402,"o":"m 276 407 l 312 543 l 109 543 l 182 814 l 385 814 l 421 949 l 692 949 l 656 814 l 928 814 l 964 949 l 1235 949 l 1199 814 l 1402 814 l 1329 543 l 1126 543 l 1090 407 l 1293 407 l 1221 136 l 1017 136 l 981 0 l 709 0 l 746 136 l 475 136 l 438 0 l 167 0 l 203 136 l 0 136 l 73 407 l 276 407 m 583 543 l 547 407 l 819 407 l 854 543 l 583 543 z "},"$":{"ha":1153,"x_min":0,"x_max":1085,"o":"m 475 949 l 475 1085 l 610 1085 l 610 949 l 1085 949 l 1085 678 l 271 678 l 271 610 l 814 610 q 1085 339 1085 610 l 1085 271 q 814 0 1085 0 l 610 0 l 610 -136 l 475 -136 l 475 0 l 0 0 l 0 271 l 814 271 l 814 339 l 271 339 q 0 610 0 339 l 0 678 q 271 949 0 949 l 475 949 z "},"%":{"ha":882,"x_min":0,"x_max":814,"o":"m 509 949 l 814 949 l 305 0 l 0 0 l 509 949 m 136 678 q 40 718 79 678 q 0 814 0 758 q 40 910 0 870 q 136 949 79 949 q 232 910 192 949 q 271 814 271 870 q 232 718 271 758 q 136 678 192 678 m 678 0 q 582 40 622 0 q 543 136 543 79 q 582 232 543 192 q 678 271 622 271 q 774 232 734 271 q 814 136 814 192 q 774 40 814 79 q 678 0 734 0 z "},"&":{"ha":1221,"x_min":0,"x_max":1153,"o":"m 814 610 l 814 678 l 271 678 l 271 610 l 814 610 m 814 271 l 814 339 l 271 339 l 271 271 l 814 271 m 1074 339 q 1085 271 1085 305 q 814 0 1085 0 l 271 0 q 0 271 0 0 q 102 475 0 373 q 0 678 0 576 q 271 949 0 949 l 814 949 q 1085 678 1085 949 q 1074 610 1085 644 l 1153 610 l 1153 339 l 1074 339 z "},"'":{"ha":339,"x_min":0,"x_max":271,"o":"m 271 610 l 0 610 l 0 1017 l 271 1017 l 271 610 z "},"(":{"ha":475,"x_min":0,"x_max":407,"o":"m 407 1085 l 407 814 l 271 814 l 271 136 l 407 136 l 407 -136 l 0 -136 l 0 1085 l 407 1085 z "},")":{"ha":475,"x_min":0,"x_max":407,"o":"m 0 1085 l 407 1085 l 407 -136 l 0 -136 l 0 136 l 136 136 l 136 814 l 0 814 l 0 1085 z "},"*":{"ha":543,"x_min":0,"x_max":475,"o":"m 271 795 l 380 905 l 429 857 l 319 746 l 475 746 l 475 678 l 319 678 l 429 568 l 380 519 l 271 629 l 271 475 l 203 475 l 203 629 l 94 519 l 46 568 l 156 678 l 0 678 l 0 746 l 156 746 l 46 857 l 94 905 l 203 795 l 203 949 l 271 949 l 271 795 z "},"+":{"ha":882,"x_min":0,"x_max":814,"o":"m 543 610 l 814 610 l 814 339 l 543 339 l 543 68 l 271 68 l 271 339 l 0 339 l 0 610 l 271 610 l 271 882 l 543 882 l 543 610 z "},",":{"ha":339,"x_min":0,"x_max":271,"o":"m 271 -203 l 0 -203 l 0 203 l 271 203 l 271 -203 z "},"-":{"ha":882,"x_min":0,"x_max":814,"o":"m 814 610 l 814 339 l 0 339 l 0 610 l 814 610 z "},".":{"ha":339,"x_min":0,"x_max":271,"o":"m 136 0 q 40 40 79 0 q 0 136 0 79 q 40 232 0 192 q 136 271 79 271 q 232 232 192 271 q 271 136 271 192 q 232 40 271 79 q 136 0 192 0 z "},"/":{"ha":882,"x_min":0,"x_max":814,"o":"m 509 949 l 814 949 l 305 0 l 0 0 l 509 949 z "},":":{"ha":339,"x_min":0,"x_max":271,"o":"m 136 0 q 40 40 79 0 q 0 136 0 79 q 40 232 0 192 q 136 271 79 271 q 232 232 192 271 q 271 136 271 192 q 232 40 271 79 q 136 0 192 0 m 136 339 q 40 379 79 339 q 0 475 0 418 q 40 571 0 531 q 136 610 79 610 q 232 571 192 610 q 271 475 271 531 q 232 379 271 418 q 136 339 192 339 z "},";":{"ha":339,"x_min":0,"x_max":271,"o":"m 271 -203 l 0 -203 l 0 203 l 271 203 l 271 -203 m 136 339 q 40 379 79 339 q 0 475 0 418 q 40 571 0 531 q 136 610 79 610 q 232 571 192 610 q 271 475 271 531 q 232 379 271 418 q 136 339 192 339 z "},"<":{"ha":475,"x_min":0,"x_max":407,"o":"m 0 475 l 271 746 l 407 610 l 271 475 l 407 339 l 271 203 l 0 475 z "},"=":{"ha":882,"x_min":0,"x_max":814,"o":"m 814 780 l 814 509 l 0 509 l 0 780 l 814 780 m 814 441 l 814 170 l 0 170 l 0 441 l 814 441 z "},">":{"ha":475,"x_min":0,"x_max":407,"o":"m 136 203 l 0 339 l 136 475 l 0 610 l 136 746 l 407 475 l 136 203 z "},"?":{"ha":1153,"x_min":0,"x_max":1085,"o":"m 407 339 l 407 610 l 814 610 l 814 678 l 0 678 l 0 949 l 814 949 q 1085 678 1085 949 l 1085 610 q 814 339 1085 339 l 407 339 m 543 0 q 447 40 486 0 q 407 136 407 79 q 447 232 407 192 q 543 271 486 271 q 638 232 599 271 q 678 136 678 192 q 638 40 678 79 q 543 0 599 0 z "},"@":{"ha":1221,"x_min":0,"x_max":1153,"o":"m 271 0 q 0 271 0 0 l 0 678 q 271 949 0 949 l 882 949 q 1153 678 1153 949 l 1153 610 q 882 339 1153 339 l 407 339 l 407 610 l 882 610 l 882 678 l 271 678 l 271 271 l 1153 271 l 1153 0 l 271 0 z "},"A":{"ha":1153,"x_min":0,"x_max":1085,"o":"m 814 678 l 271 678 l 271 271 l 1085 271 l 1085 0 l 271 0 q 0 271 0 0 l 0 678 q 271 949 0 949 l 1085 949 l 1085 339 l 814 339 l 814 678 z "},"B":{"ha":1153,"x_min":0,"x_max":1085,"o":"m 271 610 l 814 610 l 814 678 l 271 678 l 271 610 m 271 339 l 271 271 l 814 271 l 814 339 l 271 339 m 0 0 l 0 949 l 814 949 q 1085 678 1085 949 q 949 475 1085 543 q 1085 271 1085 407 q 814 0 1085 0 l 0 0 z "},"C":{"ha":1153,"x_min":0,"x_max":1085,"o":"m 271 678 l 271 271 l 1085 271 l 1085 0 l 271 0 q 0 271 0 0 l 0 678 q 271 949 0 949 l 1085 949 l 1085 678 l 271 678 z "},"D":{"ha":1153,"x_min":0,"x_max":1085,"o":"m 271 271 l 814 271 l 814 678 l 0 678 l 0 949 l 814 949 q 1085 678 1085 949 l 1085 271 q 814 0 1085 0 l 0 0 l 0 610 l 271 610 l 271 271 z "},"E":{"ha":1153,"x_min":0,"x_max":1085,"o":"m 1085 339 l 339 339 l 339 610 l 814 610 l 814 678 l 271 678 l 271 271 l 1085 271 l 1085 0 l 271 0 q 0 271 0 0 l 0 678 q 271 949 0 949 l 814 949 q 1085 678 1085 949 l 1085 339 z "},"F":{"ha":1153,"x_min":0,"x_max":1085,"o":"m 271 339 l 271 0 l 0 0 l 0 678 q 271 949 0 949 l 1085 949 l 1085 678 l 271 678 l 271 610 l 1085 610 l 1085 339 l 271 339 z "},"G":{"ha":1153,"x_min":0,"x_max":1085,"o":"m 1085 610 l 1085 271 q 814 0 1085 0 l 271 0 q 0 271 0 0 l 0 678 q 271 949 0 949 l 1085 949 l 1085 678 l 271 678 l 271 271 l 814 271 l 814 339 l 543 339 l 543 610 l 1085 610 z "},"H":{"ha":1153,"x_min":0,"x_max":1085,"o":"m 271 339 l 271 0 l 0 0 l 0 949 l 271 949 l 271 610 l 814 610 l 814 949 l 1085 949 l 1085 0 l 814 0 l 814 339 l 271 339 z "},"I":{"ha":339,"x_min":0,"x_max":271,"o":"m 271 949 l 271 0 l 0 0 l 0 949 l 271 949 z "},"J":{"ha":1153,"x_min":0,"x_max":1085,"o":"m 1085 271 q 814 0 1085 0 l 0 0 l 0 271 l 814 271 l 814 949 l 1085 949 l 1085 271 z "},"K":{"ha":1153,"x_min":0,"x_max":1085,"o":"m 814 0 l 814 339 l 271 339 l 271 0 l 0 0 l 0 949 l 271 949 l 271 509 l 712 949 l 1085 949 l 746 610 l 814 610 q 1085 339 1085 610 l 1085 0 l 814 0 z "},"L":{"ha":1153,"x_min":0,"x_max":1085,"o":"m 271 0 q 0 271 0 0 l 0 949 l 271 949 l 271 271 l 1085 271 l 1085 0 l 271 0 z "},"M":{"ha":1560,"x_min":0,"x_max":1492,"o":"m 610 678 l 271 678 l 271 0 l 0 0 l 0 949 l 1221 949 q 1492 678 1492 949 l 1492 0 l 1221 0 l 1221 678 l 882 678 l 882 0 l 610 0 l 610 678 z "},"N":{"ha":1153,"x_min":0,"x_max":1085,"o":"m 271 0 l 0 0 l 0 949 l 814 949 q 1085 678 1085 949 l 1085 0 l 814 0 l 814 678 l 271 678 l 271 0 z "},"O":{"ha":1153,"x_min":0,"x_max":1085,"o":"m 271 271 l 814 271 l 814 678 l 271 678 l 271 271 m 271 0 q 0 271 0 0 l 0 678 q 271 949 0 949 l 814 949 q 1085 678 1085 949 l 1085 271 q 814 0 1085 0 l 271 0 z "},"P":{"ha":1153,"x_min":0,"x_max":1085,"o":"m 271 610 l 814 610 l 814 678 l 271 678 l 271 610 m 271 339 l 271 0 l 0 0 l 0 949 l 814 949 q 1085 678 1085 949 l 1085 610 q 814 339 1085 339 l 271 339 z "},"Q":{"ha":1153,"x_min":0,"x_max":1085,"o":"m 271 271 l 814 271 l 814 678 l 271 678 l 271 271 m 444 0 l 271 0 q 0 271 0 0 l 0 678 q 271 949 0 949 l 814 949 q 1085 678 1085 949 l 1085 271 q 814 0 1085 0 l 949 -136 l 580 -136 l 444 0 z "},"R":{"ha":1153,"x_min":0,"x_max":1085,"o":"m 271 610 l 814 610 l 814 678 l 271 678 l 271 610 m 271 441 l 271 0 l 0 0 l 0 949 l 814 949 q 1085 678 1085 949 l 1085 610 q 814 339 1085 339 l 746 339 l 1085 0 l 712 0 l 271 441 z "},"S":{"ha":1153,"x_min":0,"x_max":1085,"o":"m 1085 678 l 271 678 l 271 610 l 814 610 q 1085 339 1085 610 l 1085 271 q 814 0 1085 0 l 0 0 l 0 271 l 814 271 l 814 339 l 271 339 q 0 610 0 339 l 0 678 q 271 949 0 949 l 1085 949 l 1085 678 z "},"T":{"ha":1153,"x_min":0,"x_max":1085,"o":"m 678 678 l 678 0 l 407 0 l 407 678 l 0 678 l 0 949 l 1085 949 l 1085 678 l 678 678 z "},"U":{"ha":1153,"x_min":0,"x_max":1085,"o":"m 271 949 l 271 271 l 814 271 l 814 949 l 1085 949 l 1085 271 q 814 0 1085 0 l 271 0 q 0 271 0 0 l 0 949 l 271 949 z "},"V":{"ha":1153,"x_min":0,"x_max":1085,"o":"m 0 949 l 271 949 l 271 407 l 543 271 l 814 407 l 814 949 l 1085 949 l 1085 407 q 983 203 1085 271 l 543 -68 l 102 203 q 0 407 0 271 l 0 949 z "},"W":{"ha":1560,"x_min":0,"x_max":1492,"o":"m 610 271 l 610 949 l 882 949 l 882 271 l 1221 271 l 1221 949 l 1492 949 l 1492 0 l 271 0 q 0 271 0 0 l 0 949 l 271 949 l 271 271 l 610 271 z "},"X":{"ha":1153,"x_min":0,"x_max":1085,"o":"m 373 475 l 0 949 l 339 949 l 543 690 l 746 949 l 1085 949 l 712 475 l 1085 0 l 746 0 l 543 259 l 339 0 l 0 0 l 373 475 z "},"Y":{"ha":1153,"x_min":0,"x_max":1085,"o":"m 407 287 l 102 475 q 0 678 0 543 l 0 949 l 271 949 l 271 678 l 543 543 l 814 678 l 814 949 l 1085 949 l 1085 678 q 983 475 1085 543 l 678 287 l 678 0 l 407 0 l 407 287 z "},"Z":{"ha":1153,"x_min":0,"x_max":1085,"o":"m 526 678 l 0 678 l 0 949 l 1085 949 l 559 271 l 1085 271 l 1085 0 l 0 0 l 526 678 z "},"[":{"ha":407,"x_min":0,"x_max":339,"o":"m 339 1085 l 339 814 l 271 814 l 271 136 l 339 136 l 339 -136 l 0 -136 l 0 1085 l 339 1085 z "},"\\":{"ha":882,"x_min":0,"x_max":814,"o":"m 814 0 l 509 0 l 0 949 l 305 949 l 814 0 z "},"]":{"ha":407,"x_min":0,"x_max":339,"o":"m 0 1085 l 339 1085 l 339 -136 l 0 -136 l 0 136 l 68 136 l 68 814 l 0 814 l 0 1085 z "},"^":{"ha":814,"x_min":0,"x_max":746,"o":"m 375 814 l 271 610 l 0 610 l 203 1017 l 543 1017 l 746 610 l 475 610 l 375 814 z "},"_":{"ha":746,"x_min":0,"x_max":678,"o":"m 678 -203 l 0 -203 l 0 0 l 678 0 l 678 -203 z "},"`":{"ha":407,"x_min":0,"x_max":339,"o":"m 339 610 l 68 610 l 0 1017 l 271 1017 l 339 610 z "},"a":{"ha":1153,"x_min":0,"x_max":1085,"o":"m 271 271 l 1085 271 l 1085 0 l 271 0 q 0 271 0 0 l 0 678 q 271 949 0 949 l 1085 949 l 1085 339 l 814 339 l 814 678 l 271 678 l 271 271 z "},"b":{"ha":1153,"x_min":0,"x_max":1085,"o":"m 271 610 l 814 610 l 814 678 l 271 678 l 271 610 m 271 339 l 271 271 l 814 271 l 814 339 l 271 339 m 0 0 l 0 949 l 814 949 q 1085 678 1085 949 q 949 475 1085 543 q 1085 271 1085 407 q 814 0 1085 0 l 0 0 z "},"c":{"ha":1153,"x_min":0,"x_max":1085,"o":"m 271 678 l 271 271 l 1085 271 l 1085 0 l 271 0 q 0 271 0 0 l 0 678 q 271 949 0 949 l 1085 949 l 1085 678 l 271 678 z "},"d":{"ha":1153,"x_min":0,"x_max":1085,"o":"m 271 271 l 814 271 l 814 678 l 0 678 l 0 949 l 814 949 q 1085 678 1085 949 l 1085 271 q 814 0 1085 0 l 0 0 l 0 610 l 271 610 l 271 271 z "},"e":{"ha":1153,"x_min":0,"x_max":1085,"o":"m 1085 339 l 339 339 l 339 610 l 814 610 l 814 678 l 271 678 l 271 271 l 1085 271 l 1085 0 l 271 0 q 0 271 0 0 l 0 678 q 271 949 0 949 l 814 949 q 1085 678 1085 949 l 1085 339 z "},"f":{"ha":1153,"x_min":0,"x_max":1085,"o":"m 271 339 l 271 0 l 0 0 l 0 678 q 271 949 0 949 l 1085 949 l 1085 678 l 271 678 l 271 610 l 1085 610 l 1085 339 l 271 339 z "},"g":{"ha":1153,"x_min":0,"x_max":1085,"o":"m 1085 610 l 1085 271 q 814 0 1085 0 l 271 0 q 0 271 0 0 l 0 678 q 271 949 0 949 l 1085 949 l 1085 678 l 271 678 l 271 271 l 814 271 l 814 339 l 543 339 l 543 610 l 1085 610 z "},"h":{"ha":1153,"x_min":0,"x_max":1085,"o":"m 271 339 l 271 0 l 0 0 l 0 949 l 271 949 l 271 610 l 814 610 l 814 949 l 1085 949 l 1085 0 l 814 0 l 814 339 l 271 339 z "},"i":{"ha":339,"x_min":0,"x_max":271,"o":"m 271 949 l 271 0 l 0 0 l 0 949 l 271 949 z "},"j":{"ha":1153,"x_min":0,"x_max":1085,"o":"m 1085 271 q 814 0 1085 0 l 0 0 l 0 271 l 814 271 l 814 949 l 1085 949 l 1085 271 z "},"k":{"ha":1153,"x_min":0,"x_max":1085,"o":"m 814 0 l 814 339 l 271 339 l 271 0 l 0 0 l 0 949 l 271 949 l 271 509 l 712 949 l 1085 949 l 746 610 l 814 610 q 1085 339 1085 610 l 1085 0 l 814 0 z "},"l":{"ha":1153,"x_min":0,"x_max":1085,"o":"m 271 0 q 0 271 0 0 l 0 949 l 271 949 l 271 271 l 1085 271 l 1085 0 l 271 0 z "},"m":{"ha":1560,"x_min":0,"x_max":2102,"o":"m 1221 678 l 882 678 l 882 0 l 610 0 l 610 678 l 271 678 l 271 0 l 0 0 l 0 949 l 1221 949 q 1492 678 1492 949 l 1492 -68 l 2102 -68 l 2102 -339 l 1492 -339 q 1221 -68 1221 -339 l 1221 678 z "},"n":{"ha":1153,"x_min":0,"x_max":1695,"o":"m 814 678 l 271 678 l 271 0 l 0 0 l 0 949 l 814 949 q 1085 678 1085 949 l 1085 -68 l 1695 -68 l 1695 -339 l 1085 -339 q 814 -68 814 -339 l 814 678 z "},"o":{"ha":1153,"x_min":0,"x_max":1085,"o":"m 271 271 l 814 271 l 814 678 l 271 678 l 271 271 m 271 0 q 0 271 0 0 l 0 678 q 271 949 0 949 l 814 949 q 1085 678 1085 949 l 1085 271 q 814 0 1085 0 l 271 0 z "},"p":{"ha":1153,"x_min":0,"x_max":1085,"o":"m 271 610 l 814 610 l 814 678 l 271 678 l 271 610 m 271 339 l 271 0 l 0 0 l 0 949 l 814 949 q 1085 678 1085 949 l 1085 610 q 814 339 1085 339 l 271 339 z "},"q":{"ha":1153,"x_min":0,"x_max":1085,"o":"m 271 271 l 814 271 l 814 678 l 271 678 l 271 271 m 444 0 l 271 0 q 0 271 0 0 l 0 678 q 271 949 0 949 l 814 949 q 1085 678 1085 949 l 1085 271 q 814 0 1085 0 l 949 -136 l 580 -136 l 444 0 z "},"r":{"ha":1153,"x_min":0,"x_max":1356,"o":"m 271 610 l 814 610 l 814 678 l 271 678 l 271 610 m 271 441 l 271 0 l 0 0 l 0 949 l 814 949 q 1085 678 1085 949 l 1085 610 q 814 339 1085 339 l 746 339 l 1356 -271 l 983 -271 l 271 441 z "},"s":{"ha":1153,"x_min":0,"x_max":1085,"o":"m 1085 678 l 271 678 l 271 610 l 814 610 q 1085 339 1085 610 l 1085 271 q 814 0 1085 0 l 0 0 l 0 271 l 814 271 l 814 339 l 271 339 q 0 610 0 339 l 0 678 q 271 949 0 949 l 1085 949 l 1085 678 z "},"t":{"ha":1153,"x_min":0,"x_max":1085,"o":"m 678 678 l 678 0 l 407 0 l 407 678 l 0 678 l 0 949 l 1085 949 l 1085 678 l 678 678 z "},"u":{"ha":1153,"x_min":0,"x_max":1085,"o":"m 271 949 l 271 271 l 814 271 l 814 949 l 1085 949 l 1085 271 q 814 0 1085 0 l 271 0 q 0 271 0 0 l 0 949 l 271 949 z "},"v":{"ha":1153,"x_min":0,"x_max":1085,"o":"m 0 949 l 271 949 l 271 407 l 543 271 l 814 407 l 814 949 l 1085 949 l 1085 407 q 983 203 1085 271 l 543 -68 l 102 203 q 0 407 0 271 l 0 949 z "},"w":{"ha":1560,"x_min":0,"x_max":1492,"o":"m 610 271 l 610 949 l 882 949 l 882 271 l 1221 271 l 1221 949 l 1492 949 l 1492 0 l 271 0 q 0 271 0 0 l 0 949 l 271 949 l 271 271 l 610 271 z "},"x":{"ha":1153,"x_min":0,"x_max":1085,"o":"m 373 475 l 0 949 l 339 949 l 543 690 l 746 949 l 1085 949 l 712 475 l 1085 0 l 746 0 l 543 259 l 339 0 l 0 0 l 373 475 z "},"y":{"ha":1153,"x_min":0,"x_max":1085,"o":"m 407 287 l 102 475 q 0 678 0 543 l 0 949 l 271 949 l 271 678 l 543 543 l 814 678 l 814 949 l 1085 949 l 1085 678 q 983 475 1085 543 l 678 287 l 678 0 l 407 0 l 407 287 z "},"z":{"ha":1153,"x_min":0,"x_max":1085,"o":"m 526 678 l 0 678 l 0 949 l 1085 949 l 559 271 l 1085 271 l 1085 0 l 0 0 l 526 678 z "},"{":{"ha":475,"x_min":0,"x_max":407,"o":"m 68 610 l 68 1085 l 407 1085 l 407 814 l 339 814 l 339 136 l 407 136 l 407 -136 l 68 -136 l 68 339 l 0 339 l 0 610 l 68 610 z "},"|":{"ha":339,"x_min":0,"x_max":271,"o":"m 271 0 l 0 0 l 0 949 l 271 949 l 271 0 z "},"}":{"ha":475,"x_min":0,"x_max":407,"o":"m 339 339 l 339 -136 l 0 -136 l 0 136 l 68 136 l 68 814 l 0 814 l 0 1085 l 339 1085 l 339 610 l 407 610 l 407 339 l 339 339 z "},"~":{"ha":543,"x_min":0,"x_max":475,"o":"m 475 610 l 0 610 l 0 814 l 475 814 l 475 610 z "},"¡":{"ha":339,"x_min":0,"x_max":271,"o":"m 271 610 l 271 0 l 0 0 l 0 610 l 271 610 m 136 949 q 232 910 192 949 q 271 814 271 870 q 232 718 271 758 q 136 678 192 678 q 40 718 79 678 q 0 814 0 758 q 40 910 0 870 q 136 949 79 949 z "},"£":{"ha":1221,"x_min":0,"x_max":1153,"o":"m 339 610 l 882 610 l 882 339 l 339 339 l 339 271 l 1153 271 l 1153 0 l 68 0 l 68 339 l 0 339 l 0 610 l 68 610 l 68 678 q 339 949 68 949 l 1153 949 l 1153 678 l 339 678 l 339 610 z "},"¥":{"ha":1153,"x_min":0,"x_max":1085,"o":"m 407 287 l 102 475 q 0 678 0 543 l 0 949 l 271 949 l 271 678 l 543 543 l 814 678 l 814 949 l 1085 949 l 1085 678 q 983 475 1085 543 l 678 287 l 678 271 l 949 271 l 949 203 l 678 203 l 678 136 l 949 136 l 949 68 l 678 68 l 678 0 l 407 0 l 407 68 l 136 68 l 136 136 l 407 136 l 407 203 l 136 203 l 136 271 l 407 271 l 407 287 z "},"¿":{"ha":1153,"x_min":0,"x_max":1085,"o":"m 678 610 l 678 339 l 271 339 l 271 271 l 1085 271 l 1085 0 l 271 0 q 0 271 0 0 l 0 339 q 271 610 0 610 l 678 610 m 543 949 q 638 910 599 949 q 678 814 678 870 q 638 718 678 758 q 543 678 599 678 q 447 718 486 678 q 407 814 407 758 q 447 910 407 870 q 543 949 486 949 z "},"À":{"ha":1153,"x_min":0,"x_max":1085,"o":"m 814 678 l 271 678 l 271 271 l 1085 271 l 1085 0 l 271 0 q 0 271 0 0 l 0 678 q 271 949 0 949 l 1085 949 l 1085 339 l 814 339 l 814 678 m 475 1017 l 407 1119 l 543 1119 l 610 1017 l 475 1017 z "},"Á":{"ha":1153,"x_min":0,"x_max":1085,"o":"m 814 678 l 271 678 l 271 271 l 1085 271 l 1085 0 l 271 0 q 0 271 0 0 l 0 678 q 271 949 0 949 l 1085 949 l 1085 339 l 814 339 l 814 678 m 610 1017 l 475 1017 l 543 1119 l 678 1119 l 610 1017 z "},"Â":{"ha":1153,"x_min":0,"x_max":1085,"o":"m 814 678 l 271 678 l 271 271 l 1085 271 l 1085 0 l 271 0 q 0 271 0 0 l 0 678 q 271 949 0 949 l 1085 949 l 1085 339 l 814 339 l 814 678 m 644 1119 l 712 1017 l 576 1017 l 543 1068 l 509 1017 l 373 1017 l 441 1119 l 644 1119 z "},"Ã":{"ha":1153,"x_min":0,"x_max":1085,"o":"m 814 678 l 271 678 l 271 271 l 1085 271 l 1085 0 l 271 0 q 0 271 0 0 l 0 678 q 271 949 0 949 l 1085 949 l 1085 339 l 814 339 l 814 678 m 576 1119 l 610 1068 l 644 1119 l 780 1119 l 712 1017 l 509 1017 l 475 1068 l 441 1017 l 305 1017 l 373 1119 l 576 1119 z "},"Ä":{"ha":1153,"x_min":0,"x_max":1085,"o":"m 814 678 l 271 678 l 271 271 l 1085 271 l 1085 0 l 271 0 q 0 271 0 0 l 0 678 q 271 949 0 949 l 1085 949 l 1085 339 l 814 339 l 814 678 m 441 983 q 393 1003 413 983 q 373 1051 373 1023 q 393 1099 373 1079 q 441 1119 413 1119 q 489 1099 469 1119 q 509 1051 509 1079 q 489 1003 509 1023 q 441 983 469 983 m 644 983 q 596 1003 616 983 q 576 1051 576 1023 q 596 1099 576 1079 q 644 1119 616 1119 q 692 1099 672 1119 q 712 1051 712 1079 q 692 1003 712 1023 q 644 983 672 983 z "},"Å":{"ha":1153,"x_min":0,"x_max":1085,"o":"m 543 983 q 567 993 557 983 q 577 1017 577 1003 q 567 1041 577 1031 q 543 1051 557 1051 q 519 1041 529 1051 q 509 1017 509 1031 q 519 993 509 1003 q 543 983 529 983 m 618 949 l 1085 949 l 1085 339 l 814 339 l 814 678 l 271 678 l 271 271 l 1085 271 l 1085 0 l 271 0 q 0 271 0 0 l 0 678 q 271 949 0 949 l 467 949 q 441 1017 441 978 q 471 1089 441 1059 q 543 1119 500 1119 q 614 1089 585 1119 q 644 1017 644 1059 q 618 949 644 978 z "},"Æ":{"ha":1967,"x_min":0,"x_max":1899,"o":"m 1628 949 q 1899 678 1899 949 l 1899 339 l 1153 339 l 1153 610 l 1628 610 l 1628 678 l 1085 678 l 1085 271 l 1899 271 l 1899 0 l 271 0 q 0 271 0 0 l 0 678 q 271 949 0 949 l 1628 949 m 814 678 l 271 678 l 271 271 l 814 271 l 814 678 z "},"Ç":{"ha":1153,"x_min":0,"x_max":1085,"o":"m 543 0 l 271 0 q 0 271 0 0 l 0 678 q 271 949 0 949 l 1085 949 l 1085 678 l 271 678 l 271 271 l 1085 271 l 1085 0 l 610 0 l 610 -68 l 543 -68 l 543 0 z "},"È":{"ha":1153,"x_min":0,"x_max":1085,"o":"m 1085 339 l 339 339 l 339 610 l 814 610 l 814 678 l 271 678 l 271 271 l 1085 271 l 1085 0 l 271 0 q 0 271 0 0 l 0 678 q 271 949 0 949 l 814 949 q 1085 678 1085 949 l 1085 339 m 475 1017 l 407 1119 l 543 1119 l 610 1017 l 475 1017 z "},"É":{"ha":1153,"x_min":0,"x_max":1085,"o":"m 1085 339 l 339 339 l 339 610 l 814 610 l 814 678 l 271 678 l 271 271 l 1085 271 l 1085 0 l 271 0 q 0 271 0 0 l 0 678 q 271 949 0 949 l 814 949 q 1085 678 1085 949 l 1085 339 m 610 1017 l 475 1017 l 543 1119 l 678 1119 l 610 1017 z "},"Ê":{"ha":1153,"x_min":0,"x_max":1085,"o":"m 1085 339 l 339 339 l 339 610 l 814 610 l 814 678 l 271 678 l 271 271 l 1085 271 l 1085 0 l 271 0 q 0 271 0 0 l 0 678 q 271 949 0 949 l 814 949 q 1085 678 1085 949 l 1085 339 m 644 1119 l 712 1017 l 576 1017 l 543 1068 l 509 1017 l 373 1017 l 441 1119 l 644 1119 z "},"Ë":{"ha":1153,"x_min":0,"x_max":1085,"o":"m 1085 339 l 339 339 l 339 610 l 814 610 l 814 678 l 271 678 l 271 271 l 1085 271 l 1085 0 l 271 0 q 0 271 0 0 l 0 678 q 271 949 0 949 l 814 949 q 1085 678 1085 949 l 1085 339 m 441 983 q 393 1003 413 983 q 373 1051 373 1023 q 393 1099 373 1079 q 441 1119 413 1119 q 489 1099 469 1119 q 509 1051 509 1079 q 489 1003 509 1023 q 441 983 469 983 m 644 983 q 596 1003 616 983 q 576 1051 576 1023 q 596 1099 576 1079 q 644 1119 616 1119 q 692 1099 672 1119 q 712 1051 712 1079 q 692 1003 712 1023 q 644 983 672 983 z "},"Ì":{"ha":339,"x_min":0,"x_max":271,"o":"m 271 949 l 271 0 l 0 0 l 0 949 l 271 949 m 68 1017 l 0 1119 l 136 1119 l 203 1017 l 68 1017 z "},"Í":{"ha":339,"x_min":0,"x_max":271,"o":"m 271 949 l 271 0 l 0 0 l 0 949 l 271 949 m 203 1017 l 68 1017 l 136 1119 l 271 1119 l 203 1017 z "},"Î":{"ha":339,"x_min":-34,"x_max":305,"o":"m 271 949 l 271 0 l 0 0 l 0 949 l 271 949 m 237 1119 l 305 1017 l 170 1017 l 136 1068 l 102 1017 l -34 1017 l 34 1119 l 237 1119 z "},"Ï":{"ha":339,"x_min":-34,"x_max":305,"o":"m 271 949 l 271 0 l 0 0 l 0 949 l 271 949 m 34 983 q -14 1003 6 983 q -34 1051 -34 1023 q -14 1099 -34 1079 q 34 1119 6 1119 q 82 1099 62 1119 q 102 1051 102 1079 q 82 1003 102 1023 q 34 983 62 983 m 237 983 q 190 1003 210 983 q 170 1051 170 1023 q 190 1099 170 1079 q 237 1119 210 1119 q 285 1099 265 1119 q 305 1051 305 1079 q 285 1003 305 1023 q 237 983 265 983 z "},"Ð":{"ha":1289,"x_min":0,"x_max":1221,"o":"m 407 339 l 407 271 l 949 271 l 949 678 l 136 678 l 136 949 l 949 949 q 1221 678 1221 949 l 1221 271 q 949 0 1221 0 l 136 0 l 136 339 l 0 339 l 0 610 l 678 610 l 678 339 l 407 339 z "},"Ñ":{"ha":1153,"x_min":0,"x_max":1085,"o":"m 271 0 l 0 0 l 0 949 l 814 949 q 1085 678 1085 949 l 1085 0 l 814 0 l 814 678 l 271 678 l 271 0 m 576 1119 l 610 1068 l 644 1119 l 780 1119 l 712 1017 l 509 1017 l 475 1068 l 441 1017 l 305 1017 l 373 1119 l 576 1119 z "},"Ò":{"ha":1153,"x_min":0,"x_max":1085,"o":"m 271 271 l 814 271 l 814 678 l 271 678 l 271 271 m 271 0 q 0 271 0 0 l 0 678 q 271 949 0 949 l 814 949 q 1085 678 1085 949 l 1085 271 q 814 0 1085 0 l 271 0 m 475 1017 l 407 1119 l 543 1119 l 610 1017 l 475 1017 z "},"Ó":{"ha":1153,"x_min":0,"x_max":1085,"o":"m 271 271 l 814 271 l 814 678 l 271 678 l 271 271 m 271 0 q 0 271 0 0 l 0 678 q 271 949 0 949 l 814 949 q 1085 678 1085 949 l 1085 271 q 814 0 1085 0 l 271 0 m 610 1017 l 475 1017 l 543 1119 l 678 1119 l 610 1017 z "},"Ô":{"ha":1153,"x_min":0,"x_max":1085,"o":"m 271 271 l 814 271 l 814 678 l 271 678 l 271 271 m 271 0 q 0 271 0 0 l 0 678 q 271 949 0 949 l 814 949 q 1085 678 1085 949 l 1085 271 q 814 0 1085 0 l 271 0 m 644 1119 l 712 1017 l 576 1017 l 543 1068 l 509 1017 l 373 1017 l 441 1119 l 644 1119 z "},"Õ":{"ha":1153,"x_min":0,"x_max":1085,"o":"m 271 271 l 814 271 l 814 678 l 271 678 l 271 271 m 271 0 q 0 271 0 0 l 0 678 q 271 949 0 949 l 814 949 q 1085 678 1085 949 l 1085 271 q 814 0 1085 0 l 271 0 m 576 1119 l 610 1068 l 644 1119 l 780 1119 l 712 1017 l 509 1017 l 475 1068 l 441 1017 l 305 1017 l 373 1119 l 576 1119 z "},"Ö":{"ha":1153,"x_min":0,"x_max":1085,"o":"m 271 271 l 814 271 l 814 678 l 271 678 l 271 271 m 271 0 q 0 271 0 0 l 0 678 q 271 949 0 949 l 814 949 q 1085 678 1085 949 l 1085 271 q 814 0 1085 0 l 271 0 m 441 983 q 393 1003 413 983 q 373 1051 373 1023 q 393 1099 373 1079 q 441 1119 413 1119 q 489 1099 469 1119 q 509 1051 509 1079 q 489 1003 509 1023 q 441 983 469 983 m 644 983 q 596 1003 616 983 q 576 1051 576 1023 q 596 1099 576 1079 q 644 1119 616 1119 q 692 1099 672 1119 q 712 1051 712 1079 q 692 1003 712 1023 q 644 983 672 983 z "},"×":{"ha":836,"x_min":0,"x_max":768,"o":"m 576 475 l 768 284 l 576 92 l 385 283 l 193 91 l 1 282 l 192 474 l 0 665 l 191 858 l 383 667 l 574 859 l 767 667 l 576 475 z "},"Ø":{"ha":1153,"x_min":0,"x_max":1085,"o":"m 70 66 q 0 271 0 134 l 0 678 q 271 949 0 949 l 814 949 q 977 912 914 949 l 1017 949 l 1085 949 l 1015 884 q 1085 678 1085 816 l 1085 271 q 814 0 1085 0 l 271 0 q 108 37 171 0 l 68 0 l 0 0 l 70 66 m 794 678 l 359 271 l 814 271 l 814 678 l 794 678 m 291 271 l 726 678 l 271 678 l 271 271 l 291 271 z "},"Ù":{"ha":1153,"x_min":0,"x_max":1085,"o":"m 271 949 l 271 271 l 814 271 l 814 949 l 1085 949 l 1085 271 q 814 0 1085 0 l 271 0 q 0 271 0 0 l 0 949 l 271 949 m 475 1017 l 407 1119 l 543 1119 l 610 1017 l 475 1017 z "},"Ú":{"ha":1153,"x_min":0,"x_max":1085,"o":"m 271 949 l 271 271 l 814 271 l 814 949 l 1085 949 l 1085 271 q 814 0 1085 0 l 271 0 q 0 271 0 0 l 0 949 l 271 949 m 610 1017 l 475 1017 l 543 1119 l 678 1119 l 610 1017 z "},"Û":{"ha":1153,"x_min":0,"x_max":1085,"o":"m 271 949 l 271 271 l 814 271 l 814 949 l 1085 949 l 1085 271 q 814 0 1085 0 l 271 0 q 0 271 0 0 l 0 949 l 271 949 m 644 1119 l 712 1017 l 576 1017 l 543 1068 l 509 1017 l 373 1017 l 441 1119 l 644 1119 z "},"Ü":{"ha":1153,"x_min":0,"x_max":1085,"o":"m 271 949 l 271 271 l 814 271 l 814 949 l 1085 949 l 1085 271 q 814 0 1085 0 l 271 0 q 0 271 0 0 l 0 949 l 271 949 m 441 983 q 393 1003 413 983 q 373 1051 373 1023 q 393 1099 373 1079 q 441 1119 413 1119 q 489 1099 469 1119 q 509 1051 509 1079 q 489 1003 509 1023 q 441 983 469 983 m 644 983 q 596 1003 616 983 q 576 1051 576 1023 q 596 1099 576 1079 q 644 1119 616 1119 q 692 1099 672 1119 q 712 1051 712 1079 q 692 1003 712 1023 q 644 983 672 983 z "},"Ý":{"ha":1153,"x_min":0,"x_max":1085,"o":"m 407 287 l 102 475 q 0 678 0 543 l 0 949 l 271 949 l 271 678 l 543 543 l 814 678 l 814 949 l 1085 949 l 1085 678 q 983 475 1085 543 l 678 287 l 678 0 l 407 0 l 407 287 m 610 1017 l 475 1017 l 543 1119 l 678 1119 l 610 1017 z "},"Þ":{"ha":1153,"x_min":0,"x_max":1085,"o":"m 271 475 l 814 475 l 814 543 l 271 543 l 271 475 m 271 203 l 271 0 l 0 0 l 0 949 l 271 949 l 271 814 l 814 814 q 1085 543 1085 814 l 1085 475 q 814 203 1085 203 l 271 203 z "},"ß":{"ha":1153,"x_min":0,"x_max":1085,"o":"m 271 0 l 0 0 l 0 949 l 814 949 q 1085 678 1085 949 q 949 475 1085 543 q 1085 271 1085 407 q 814 0 1085 0 l 407 0 l 407 271 l 814 271 l 814 339 l 407 339 l 407 610 l 814 610 l 814 678 l 271 678 l 271 0 z "},"à":{"ha":1153,"x_min":0,"x_max":1085,"o":"m 814 678 l 271 678 l 271 271 l 1085 271 l 1085 0 l 271 0 q 0 271 0 0 l 0 678 q 271 949 0 949 l 1085 949 l 1085 339 l 814 339 l 814 678 m 475 1017 l 407 1119 l 543 1119 l 610 1017 l 475 1017 z "},"á":{"ha":1153,"x_min":0,"x_max":1085,"o":"m 814 678 l 271 678 l 271 271 l 1085 271 l 1085 0 l 271 0 q 0 271 0 0 l 0 678 q 271 949 0 949 l 1085 949 l 1085 339 l 814 339 l 814 678 m 610 1017 l 475 1017 l 543 1119 l 678 1119 l 610 1017 z "},"â":{"ha":1153,"x_min":0,"x_max":1085,"o":"m 814 678 l 271 678 l 271 271 l 1085 271 l 1085 0 l 271 0 q 0 271 0 0 l 0 678 q 271 949 0 949 l 1085 949 l 1085 339 l 814 339 l 814 678 m 644 1119 l 712 1017 l 576 1017 l 543 1068 l 509 1017 l 373 1017 l 441 1119 l 644 1119 z "},"ã":{"ha":1153,"x_min":0,"x_max":1085,"o":"m 814 678 l 271 678 l 271 271 l 1085 271 l 1085 0 l 271 0 q 0 271 0 0 l 0 678 q 271 949 0 949 l 1085 949 l 1085 339 l 814 339 l 814 678 m 576 1119 l 610 1068 l 644 1119 l 780 1119 l 712 1017 l 509 1017 l 475 1068 l 441 1017 l 305 1017 l 373 1119 l 576 1119 z "},"ä":{"ha":1153,"x_min":0,"x_max":1085,"o":"m 814 678 l 271 678 l 271 271 l 1085 271 l 1085 0 l 271 0 q 0 271 0 0 l 0 678 q 271 949 0 949 l 1085 949 l 1085 339 l 814 339 l 814 678 m 441 983 q 393 1003 413 983 q 373 1051 373 1023 q 393 1099 373 1079 q 441 1119 413 1119 q 489 1099 469 1119 q 509 1051 509 1079 q 489 1003 509 1023 q 441 983 469 983 m 644 983 q 596 1003 616 983 q 576 1051 576 1023 q 596 1099 576 1079 q 644 1119 616 1119 q 692 1099 672 1119 q 712 1051 712 1079 q 692 1003 712 1023 q 644 983 672 983 z "},"å":{"ha":1153,"x_min":0,"x_max":1085,"o":"m 543 983 q 567 993 557 983 q 577 1017 577 1003 q 567 1041 577 1031 q 543 1051 557 1051 q 519 1041 529 1051 q 509 1017 509 1031 q 519 993 509 1003 q 543 983 529 983 m 618 949 l 1085 949 l 1085 339 l 814 339 l 814 678 l 271 678 l 271 271 l 1085 271 l 1085 0 l 271 0 q 0 271 0 0 l 0 678 q 271 949 0 949 l 467 949 q 441 1017 441 978 q 471 1089 441 1059 q 543 1119 500 1119 q 614 1089 585 1119 q 644 1017 644 1059 q 618 949 644 978 z "},"æ":{"ha":1967,"x_min":0,"x_max":1899,"o":"m 1628 949 q 1899 678 1899 949 l 1899 339 l 1153 339 l 1153 610 l 1628 610 l 1628 678 l 1085 678 l 1085 271 l 1899 271 l 1899 0 l 271 0 q 0 271 0 0 l 0 678 q 271 949 0 949 l 1628 949 m 814 678 l 271 678 l 271 271 l 814 271 l 814 678 z "},"ç":{"ha":1153,"x_min":0,"x_max":1085,"o":"m 543 0 l 271 0 q 0 271 0 0 l 0 678 q 271 949 0 949 l 1085 949 l 1085 678 l 271 678 l 271 271 l 1085 271 l 1085 0 l 610 0 l 610 -68 l 543 -68 l 543 0 z "},"è":{"ha":1153,"x_min":0,"x_max":1085,"o":"m 1085 339 l 339 339 l 339 610 l 814 610 l 814 678 l 271 678 l 271 271 l 1085 271 l 1085 0 l 271 0 q 0 271 0 0 l 0 678 q 271 949 0 949 l 814 949 q 1085 678 1085 949 l 1085 339 m 475 1017 l 407 1119 l 543 1119 l 610 1017 l 475 1017 z "},"é":{"ha":1153,"x_min":0,"x_max":1085,"o":"m 1085 339 l 339 339 l 339 610 l 814 610 l 814 678 l 271 678 l 271 271 l 1085 271 l 1085 0 l 271 0 q 0 271 0 0 l 0 678 q 271 949 0 949 l 814 949 q 1085 678 1085 949 l 1085 339 m 610 1017 l 475 1017 l 543 1119 l 678 1119 l 610 1017 z "},"ê":{"ha":1153,"x_min":0,"x_max":1085,"o":"m 1085 339 l 339 339 l 339 610 l 814 610 l 814 678 l 271 678 l 271 271 l 1085 271 l 1085 0 l 271 0 q 0 271 0 0 l 0 678 q 271 949 0 949 l 814 949 q 1085 678 1085 949 l 1085 339 m 644 1119 l 712 1017 l 576 1017 l 543 1068 l 509 1017 l 373 1017 l 441 1119 l 644 1119 z "},"ë":{"ha":1153,"x_min":0,"x_max":1085,"o":"m 1085 339 l 339 339 l 339 610 l 814 610 l 814 678 l 271 678 l 271 271 l 1085 271 l 1085 0 l 271 0 q 0 271 0 0 l 0 678 q 271 949 0 949 l 814 949 q 1085 678 1085 949 l 1085 339 m 441 983 q 393 1003 413 983 q 373 1051 373 1023 q 393 1099 373 1079 q 441 1119 413 1119 q 489 1099 469 1119 q 509 1051 509 1079 q 489 1003 509 1023 q 441 983 469 983 m 644 983 q 596 1003 616 983 q 576 1051 576 1023 q 596 1099 576 1079 q 644 1119 616 1119 q 692 1099 672 1119 q 712 1051 712 1079 q 692 1003 712 1023 q 644 983 672 983 z "},"ì":{"ha":339,"x_min":0,"x_max":271,"o":"m 271 949 l 271 0 l 0 0 l 0 949 l 271 949 m 68 1017 l 0 1119 l 136 1119 l 203 1017 l 68 1017 z "},"í":{"ha":339,"x_min":0,"x_max":271,"o":"m 271 949 l 271 0 l 0 0 l 0 949 l 271 949 m 203 1017 l 68 1017 l 136 1119 l 271 1119 l 203 1017 z "},"î":{"ha":339,"x_min":-34,"x_max":305,"o":"m 271 949 l 271 0 l 0 0 l 0 949 l 271 949 m 237 1119 l 305 1017 l 170 1017 l 136 1068 l 102 1017 l -34 1017 l 34 1119 l 237 1119 z "},"ï":{"ha":339,"x_min":-34,"x_max":305,"o":"m 271 949 l 271 0 l 0 0 l 0 949 l 271 949 m 34 983 q -14 1003 6 983 q -34 1051 -34 1023 q -14 1099 -34 1079 q 34 1119 6 1119 q 82 1099 62 1119 q 102 1051 102 1079 q 82 1003 102 1023 q 34 983 62 983 m 237 983 q 190 1003 210 983 q 170 1051 170 1023 q 190 1099 170 1079 q 237 1119 210 1119 q 285 1099 265 1119 q 305 1051 305 1079 q 285 1003 305 1023 q 237 983 265 983 z "},"ð":{"ha":1153,"x_min":0,"x_max":1085,"o":"m 271 271 l 814 271 l 814 678 l 271 678 l 271 271 m 1017 882 q 1085 678 1085 814 l 1085 271 q 814 0 1085 0 l 271 0 q 0 271 0 0 l 0 678 q 271 949 0 949 l 814 949 q 949 926 882 949 l 949 1017 l 882 1017 l 882 1085 l 949 1085 l 949 1153 l 1017 1153 l 1017 1085 l 1085 1085 l 1085 1017 l 1017 1017 l 1017 882 z "},"ñ":{"ha":1153,"x_min":0,"x_max":1695,"o":"m 814 678 l 271 678 l 271 0 l 0 0 l 0 949 l 814 949 q 1085 678 1085 949 l 1085 -68 l 1695 -68 l 1695 -339 l 1085 -339 q 814 -68 814 -339 l 814 678 m 576 1119 l 610 1068 l 644 1119 l 780 1119 l 712 1017 l 509 1017 l 475 1068 l 441 1017 l 305 1017 l 373 1119 l 576 1119 z "},"ò":{"ha":1153,"x_min":0,"x_max":1085,"o":"m 271 271 l 814 271 l 814 678 l 271 678 l 271 271 m 271 0 q 0 271 0 0 l 0 678 q 271 949 0 949 l 814 949 q 1085 678 1085 949 l 1085 271 q 814 0 1085 0 l 271 0 m 475 1017 l 407 1119 l 543 1119 l 610 1017 l 475 1017 z "},"ó":{"ha":1153,"x_min":0,"x_max":1085,"o":"m 271 271 l 814 271 l 814 678 l 271 678 l 271 271 m 271 0 q 0 271 0 0 l 0 678 q 271 949 0 949 l 814 949 q 1085 678 1085 949 l 1085 271 q 814 0 1085 0 l 271 0 m 610 1017 l 475 1017 l 543 1119 l 678 1119 l 610 1017 z "},"ô":{"ha":1153,"x_min":0,"x_max":1085,"o":"m 271 271 l 814 271 l 814 678 l 271 678 l 271 271 m 271 0 q 0 271 0 0 l 0 678 q 271 949 0 949 l 814 949 q 1085 678 1085 949 l 1085 271 q 814 0 1085 0 l 271 0 m 644 1119 l 712 1017 l 576 1017 l 543 1068 l 509 1017 l 373 1017 l 441 1119 l 644 1119 z "},"õ":{"ha":1153,"x_min":0,"x_max":1085,"o":"m 271 271 l 814 271 l 814 678 l 271 678 l 271 271 m 271 0 q 0 271 0 0 l 0 678 q 271 949 0 949 l 814 949 q 1085 678 1085 949 l 1085 271 q 814 0 1085 0 l 271 0 m 576 1119 l 610 1068 l 644 1119 l 780 1119 l 712 1017 l 509 1017 l 475 1068 l 441 1017 l 305 1017 l 373 1119 l 576 1119 z "},"ö":{"ha":1153,"x_min":0,"x_max":1085,"o":"m 271 271 l 814 271 l 814 678 l 271 678 l 271 271 m 271 0 q 0 271 0 0 l 0 678 q 271 949 0 949 l 814 949 q 1085 678 1085 949 l 1085 271 q 814 0 1085 0 l 271 0 m 441 983 q 393 1003 413 983 q 373 1051 373 1023 q 393 1099 373 1079 q 441 1119 413 1119 q 489 1099 469 1119 q 509 1051 509 1079 q 489 1003 509 1023 q 441 983 469 983 m 644 983 q 596 1003 616 983 q 576 1051 576 1023 q 596 1099 576 1079 q 644 1119 616 1119 q 692 1099 672 1119 q 712 1051 712 1079 q 692 1003 712 1023 q 644 983 672 983 z "},"÷":{"ha":1153,"x_min":0,"x_max":1085,"o":"m 1085 610 l 1085 339 l 0 339 l 0 610 l 1085 610 m 543 678 q 447 718 486 678 q 407 814 407 758 q 447 910 407 870 q 543 949 486 949 q 638 910 599 949 q 678 814 678 870 q 638 718 678 758 q 543 678 599 678 m 543 0 q 447 40 486 0 q 407 136 407 79 q 447 232 407 192 q 543 271 486 271 q 638 232 599 271 q 678 136 678 192 q 638 40 678 79 q 543 0 599 0 z "},"ø":{"ha":1153,"x_min":0,"x_max":1085,"o":"m 70 66 q 0 271 0 134 l 0 678 q 271 949 0 949 l 814 949 q 977 912 914 949 l 1017 949 l 1085 949 l 1015 884 q 1085 678 1085 816 l 1085 271 q 814 0 1085 0 l 271 0 q 108 37 171 0 l 68 0 l 0 0 l 70 66 m 794 678 l 359 271 l 814 271 l 814 678 l 794 678 m 291 271 l 726 678 l 271 678 l 271 271 l 291 271 z "},"ù":{"ha":1153,"x_min":0,"x_max":1085,"o":"m 271 949 l 271 271 l 814 271 l 814 949 l 1085 949 l 1085 271 q 814 0 1085 0 l 271 0 q 0 271 0 0 l 0 949 l 271 949 m 475 1017 l 407 1119 l 543 1119 l 610 1017 l 475 1017 z "},"ú":{"ha":1153,"x_min":0,"x_max":1085,"o":"m 271 949 l 271 271 l 814 271 l 814 949 l 1085 949 l 1085 271 q 814 0 1085 0 l 271 0 q 0 271 0 0 l 0 949 l 271 949 m 610 1017 l 475 1017 l 543 1119 l 678 1119 l 610 1017 z "},"û":{"ha":1153,"x_min":0,"x_max":1085,"o":"m 271 949 l 271 271 l 814 271 l 814 949 l 1085 949 l 1085 271 q 814 0 1085 0 l 271 0 q 0 271 0 0 l 0 949 l 271 949 m 644 1119 l 712 1017 l 576 1017 l 543 1068 l 509 1017 l 373 1017 l 441 1119 l 644 1119 z "},"ü":{"ha":1153,"x_min":0,"x_max":1085,"o":"m 271 949 l 271 271 l 814 271 l 814 949 l 1085 949 l 1085 271 q 814 0 1085 0 l 271 0 q 0 271 0 0 l 0 949 l 271 949 m 441 983 q 393 1003 413 983 q 373 1051 373 1023 q 393 1099 373 1079 q 441 1119 413 1119 q 489 1099 469 1119 q 509 1051 509 1079 q 489 1003 509 1023 q 441 983 469 983 m 644 983 q 596 1003 616 983 q 576 1051 576 1023 q 596 1099 576 1079 q 644 1119 616 1119 q 692 1099 672 1119 q 712 1051 712 1079 q 692 1003 712 1023 q 644 983 672 983 z "},"ý":{"ha":1153,"x_min":0,"x_max":1085,"o":"m 407 287 l 102 475 q 0 678 0 543 l 0 949 l 271 949 l 271 678 l 543 543 l 814 678 l 814 949 l 1085 949 l 1085 678 q 983 475 1085 543 l 678 287 l 678 0 l 407 0 l 407 287 m 610 1017 l 475 1017 l 543 1119 l 678 1119 l 610 1017 z "},"þ":{"ha":1153,"x_min":0,"x_max":1085,"o":"m 271 475 l 814 475 l 814 543 l 271 543 l 271 475 m 271 203 l 271 0 l 0 0 l 0 949 l 271 949 l 271 814 l 814 814 q 1085 543 1085 814 l 1085 475 q 814 203 1085 203 l 271 203 z "},"ÿ":{"ha":1153,"x_min":0,"x_max":1085,"o":"m 407 287 l 102 475 q 0 678 0 543 l 0 949 l 271 949 l 271 678 l 543 543 l 814 678 l 814 949 l 1085 949 l 1085 678 q 983 475 1085 543 l 678 287 l 678 0 l 407 0 l 407 287 m 441 983 q 393 1003 413 983 q 373 1051 373 1023 q 393 1099 373 1079 q 441 1119 413 1119 q 489 1099 469 1119 q 509 1051 509 1079 q 489 1003 509 1023 q 441 983 469 983 m 644 983 q 596 1003 616 983 q 576 1051 576 1023 q 596 1099 576 1079 q 644 1119 616 1119 q 692 1099 672 1119 q 712 1051 712 1079 q 692 1003 712 1023 q 644 983 672 983 z "},"Œ":{"ha":1967,"x_min":0,"x_max":1899,"o":"m 271 271 l 814 271 l 814 678 l 271 678 l 271 271 m 1085 678 l 1085 610 l 1899 610 l 1899 339 l 1085 339 l 1085 271 l 1899 271 l 1899 0 l 271 0 q 0 271 0 0 l 0 678 q 271 949 0 949 l 1899 949 l 1899 678 l 1085 678 z "},"œ":{"ha":1967,"x_min":0,"x_max":1899,"o":"m 271 271 l 814 271 l 814 678 l 271 678 l 271 271 m 1085 678 l 1085 610 l 1899 610 l 1899 339 l 1085 339 l 1085 271 l 1899 271 l 1899 0 l 271 0 q 0 271 0 0 l 0 678 q 271 949 0 949 l 1899 949 l 1899 678 l 1085 678 z "},"ˆ":{"ha":407,"x_min":0,"x_max":339,"o":"m 271 1085 l 339 983 l 203 983 l 170 1034 l 136 983 l 0 983 l 68 1085 l 271 1085 z "},"ˇ":{"ha":407,"x_min":0,"x_max":339,"o":"m 271 983 l 68 983 l 0 1085 l 136 1085 l 170 1034 l 203 1085 l 339 1085 l 271 983 z "},"̀":{"ha":271,"x_min":0,"x_max":203,"o":"m 68 1017 l 0 1119 l 136 1119 l 203 1017 l 68 1017 z "},"́":{"ha":271,"x_min":0,"x_max":203,"o":"m 136 1017 l 0 1017 l 68 1119 l 203 1119 l 136 1017 z "},"̂":{"ha":407,"x_min":0,"x_max":339,"o":"m 271 1119 l 339 1017 l 203 1017 l 170 1068 l 136 1017 l 0 1017 l 68 1119 l 271 1119 z "},"̃":{"ha":543,"x_min":0,"x_max":475,"o":"m 271 1119 l 305 1068 l 339 1119 l 475 1119 l 407 1017 l 203 1017 l 170 1068 l 136 1017 l 0 1017 l 68 1119 l 271 1119 z "},"̈":{"ha":407,"x_min":0,"x_max":339,"o":"m 68 983 q 20 1003 40 983 q 0 1051 0 1023 q 20 1099 0 1079 q 68 1119 40 1119 q 116 1099 96 1119 q 136 1051 136 1079 q 116 1003 136 1023 q 68 983 96 983 m 271 983 q 223 1003 243 983 q 203 1051 203 1023 q 223 1099 203 1079 q 271 1119 243 1119 q 319 1099 299 1119 q 339 1051 339 1079 q 319 1003 339 1023 q 271 983 299 983 z "},"̊":{"ha":271,"x_min":0,"x_max":203,"o":"m 102 949 q 30 979 60 949 q 0 1051 0 1009 q 30 1123 0 1093 q 102 1153 60 1153 q 174 1123 144 1153 q 203 1051 203 1093 q 174 979 203 1009 q 102 949 144 949 m 102 1017 q 126 1027 117 1017 q 136 1051 136 1037 q 126 1075 136 1065 q 102 1085 117 1085 q 78 1075 88 1085 q 68 1051 68 1065 q 78 1027 68 1037 q 102 1017 88 1017 z "},"̌":{"ha":407,"x_min":0,"x_max":339,"o":"m 271 983 l 68 983 l 0 1085 l 136 1085 l 170 1034 l 203 1085 l 339 1085 l 271 983 z "},"€":{"ha":1289,"x_min":0,"x_max":1221,"o":"m 1085 576 l 1085 509 l 407 509 l 407 441 l 1085 441 l 1085 373 l 407 373 l 407 271 l 1221 271 l 1221 0 l 407 0 q 136 271 136 0 l 136 373 l 0 373 l 0 441 l 136 441 l 136 509 l 0 509 l 0 576 l 136 576 l 136 678 q 407 949 136 949 l 1221 949 l 1221 678 l 407 678 l 407 576 l 1085 576 z "}}}
